<svg width="24" height="18" fill="none" xmlns="http://www.w3.org/2000/svg"><path d="M22.54 3.42a2.78 2.78 0 0 0-1.94-2C18.88 1 12 1 12 1s-6.88 0-8.6.46a2.78 2.78 0 0 0-1.94 2A29 29 0 0 0 1 8.75a29 29 0 0 0 .46 5.33A2.78 2.78 0 0 0 3.4 16c1.72.46 8.6.46 8.6.46s6.88 0 8.6-.46a2.78 2.78 0 0 0 1.94-2c.312-1.732.466-3.49.46-5.25a29.005 29.005 0 0 0-.46-5.33Z" stroke="#E7364D" stroke-width="2" stroke-linecap="round" stroke-linejoin="round"/><path d="m9.75 12.02 5.75-3.27-5.75-3.27v6.54Z" stroke="#E7364D" stroke-width="2" stroke-linecap="round" stroke-linejoin="round"/></svg>