<svg width="22" height="22" viewBox="0 0 22 22" fill="none" xmlns="http://www.w3.org/2000/svg">
<path d="M16.5 5.5H16.51M6 1H16C18.7614 1 21 3.23858 21 6V16C21 18.7614 18.7614 21 16 21H6C3.23858 21 1 18.7614 1 16V6C1 3.23858 3.23858 1 6 1ZM15 10.37C15.1234 11.2022 14.9813 12.0522 14.5938 12.799C14.2063 13.5458 13.5932 14.1514 12.8416 14.5297C12.0901 14.9079 11.2385 15.0396 10.4078 14.9059C9.57714 14.7723 8.80977 14.3801 8.21485 13.7852C7.61993 13.1902 7.22774 12.4229 7.09408 11.5922C6.96042 10.7615 7.09208 9.90989 7.47034 9.15837C7.8486 8.40685 8.4542 7.79374 9.201 7.40624C9.9478 7.01874 10.7978 6.87658 11.63 7C12.4789 7.12588 13.2649 7.52146 13.8717 8.1283C14.4785 8.73515 14.8741 9.52107 15 10.37Z" stroke="#E7364D" stroke-width="2" stroke-linecap="round" stroke-linejoin="round"/>
</svg>
